<svg width="50" height="50" viewBox="0 0 50 50" fill="none" xmlns="http://www.w3.org/2000/svg">
<g clip-path="url(#clip0_244_28)">
<path d="M47 18L42 24L37 18" stroke="black" stroke-width="5" stroke-linecap="round" stroke-linejoin="round"/>
<path d="M28 3H38.5C39.4283 3 40.3185 3.36875 40.9749 4.02513C41.6313 4.6815 42 5.57174 42 6.5V24" stroke="black" stroke-width="5" stroke-linecap="round" stroke-linejoin="round"/>
<path d="M12.4997 2.66675H4.99967C4.55765 2.66675 4.13372 2.84234 3.82116 3.1549C3.5086 3.46746 3.33301 3.89139 3.33301 4.33341V17.6667C3.33301 18.1088 3.5086 18.5327 3.82116 18.8453C4.13372 19.1578 4.55765 19.3334 4.99967 19.3334H14.9997C15.4417 19.3334 15.8656 19.1578 16.1782 18.8453C16.4907 18.5327 16.6663 18.1088 16.6663 17.6667V6.83341L12.4997 2.66675Z" fill="black" stroke="black" stroke-width="2" stroke-linecap="round" stroke-linejoin="round"/>
<path d="M11.667 2.66675V6.00008C11.667 6.44211 11.8426 6.86603 12.1551 7.17859C12.4677 7.49115 12.8916 7.66675 13.3337 7.66675H16.667" fill="white"/>
<path d="M11.667 2.66675V6.00008C11.667 6.44211 11.8426 6.86603 12.1551 7.17859C12.4677 7.49115 12.8916 7.66675 13.3337 7.66675H16.667" stroke="black" stroke-width="2" stroke-linecap="round" stroke-linejoin="round"/>
<path d="M41.4997 30.6667H33.9997C33.5576 30.6667 33.1337 30.8423 32.8212 31.1549C32.5086 31.4675 32.333 31.8914 32.333 32.3334V45.6667C32.333 46.1088 32.5086 46.5327 32.8212 46.8453C33.1337 47.1578 33.5576 47.3334 33.9997 47.3334H43.9997C44.4417 47.3334 44.8656 47.1578 45.1782 46.8453C45.4907 46.5327 45.6663 46.1088 45.6663 45.6667V34.8334L41.4997 30.6667Z" fill="black" stroke="black" stroke-width="2" stroke-linecap="round" stroke-linejoin="round"/>
<path d="M40.667 30.6667V34.0001C40.667 34.4421 40.8426 34.866 41.1551 35.1786C41.4677 35.4912 41.8916 35.6667 42.3337 35.6667H45.667" fill="white"/>
<path d="M40.667 30.6667V34.0001C40.667 34.4421 40.8426 34.866 41.1551 35.1786C41.4677 35.4912 41.8916 35.6667 42.3337 35.6667H45.667" stroke="black" stroke-width="2" stroke-linecap="round" stroke-linejoin="round"/>
<path d="M3 32L8 26L13 32" stroke="black" stroke-width="5" stroke-linecap="round" stroke-linejoin="round"/>
<path d="M22 47H11.5C10.5717 47 9.6815 46.6313 9.02513 45.9749C8.36875 45.3185 8 44.4283 8 43.5L8 26" stroke="black" stroke-width="5" stroke-linecap="round" stroke-linejoin="round"/>
</g>
<defs>
<clipPath id="clip0_244_28">
<rect width="50" height="50" fill="white"/>
</clipPath>
</defs>
</svg>
